<?xml version="1.0" encoding="utf-8"?>
<svg viewBox="125.394 184.738 14.8528 15.2906" xmlns="http://www.w3.org/2000/svg">
  <g transform="matrix(0.9999999999999999, 0, 0, 0.9999999999999999, 0, 2.842170943040401e-14)">
    <g transform="matrix(1, 0, 0, 1, 49.183998, 26.651001)">
      <g transform="matrix(0.513816, 0, 0, 0.513816, -21.957214, 67.381416)">
        <path fill-rule="evenodd" clip-rule="evenodd" d="M 207.962 192.292 C 205.762 192.292 203.962 194.092 203.962 196.292 L 203.962 199.292 C 203.936 200.839 204.594 203.679 207.939 203.731 L 213.939 203.731 L 213.927 200.772 L 208.927 200.772 C 207.127 200.772 206.92 200.982 206.92 199.282 L 206.92 196.315 C 206.92 194.954 207.908 195.276 209.219 195.225 L 207.962 192.292 Z M 214.909 195.122 C 216.709 195.122 217.035 195.603 217.035 197.303 L 217.035 198.303 C 217.035 199.103 217.062 199.322 216.662 199.822 L 218.932 201.55 C 219.895 200.593 219.937 199.861 219.962 198.579 L 219.962 196.292 C 219.962 194.092 218.162 192.292 215.962 192.292 L 214.909 195.122 Z" fill="white"/>
        <path fill-rule="evenodd" clip-rule="evenodd" d="M 211.962 206.292 L 216.962 202.292 L 211.962 198.292 L 211.962 206.292 Z" fill="white"/>
      </g>
      <rect x="900.76" y="145.58" width="4.19" height="1.514" fill="white" style="" transform="matrix(1, 0, 0, 1, -815.885498, 20.604347)"/>
    </g>
    <path opacity="0.5" d="M 137.777 190.929 C 137.777 191.3 137.529 191.548 137.158 191.548 L 134.681 191.548 C 134.433 191.548 134.186 191.424 134.062 191.3 L 133.566 190.31 L 133.938 189.691 C 134.186 189.195 133.938 188.576 133.938 188.576 L 134.929 190.31 L 137.158 190.31 C 137.529 190.31 137.777 190.681 137.777 190.929 Z M 129.729 192.787 C 129.357 192.663 129.233 192.291 129.109 192.044 L 128.119 193.53 L 126.013 193.53 C 125.642 193.53 125.394 193.777 125.394 194.149 C 125.394 194.52 125.642 194.768 126.013 194.768 L 128.49 194.768 C 128.738 194.768 128.986 194.644 129.109 194.396 L 129.975 192.91 L 129.729 192.787 Z" fill="white" style=""/>
    <path fill-rule="evenodd" clip-rule="evenodd" d="M 127.623 189.195 C 127.376 188.948 127.376 188.576 127.623 188.328 L 129.233 186.472 C 129.481 186.224 129.729 186.1 130.099 186.224 L 132.328 187.338 L 132.452 187.338 L 132.7 187.461 L 133.69 187.957 C 133.814 188.328 133.938 188.824 133.69 189.319 L 133.319 189.938 L 131.957 192.167 L 132.109 192.259 C 132.459 192.456 132.359 192.427 132.443 192.615 L 131.794 193.361 L 130.223 192.539 L 130.099 192.539 C 129.605 192.291 129.481 191.796 129.481 191.3 L 131.213 188.328 L 129.851 187.585 L 128.49 189.195 C 128.242 189.443 127.871 189.443 127.623 189.195 Z M 134.681 184.738 C 133.814 184.738 133.071 185.481 133.071 186.348 C 133.071 187.214 133.814 187.957 134.681 187.957 C 135.548 187.957 136.291 187.214 136.291 186.348 C 136.291 185.481 135.548 184.738 134.681 184.738 Z" fill="white" style=""/>
  </g>
</svg>